HIERARCHY
ROOT hip
{
  OFFSET 0 0 0
  CHANNELS 6 Xposition Yposition Zposition Zrotation Yrotation Xrotation
  JOINT abdomen
  {
    OFFSET 0 20.6881 -0.73152
    CHANNELS 3 Zrotation Xrotation Yrotation
    JOINT chest
    {
      OFFSET 0 11.7043 -0.48768
      CHANNELS 3 Zrotation Xrotation Yrotation
      JOINT neck
      {
        OFFSET 0 22.1894 -2.19456
        CHANNELS 3 Zrotation Xrotation Yrotation
        JOINT head
        {
          OFFSET -0.24384 7.07133 1.2192
          CHANNELS 3 Zrotation Xrotation Yrotation
          JOINT leftEye
          {
            OFFSET 4.14528 8.04674 8.04672
            CHANNELS 3 Zrotation Xrotation Yrotation
            End Site
            {
              OFFSET 1 0 0
            }
          }
          JOINT rightEye
          {
            OFFSET -3.6576 8.04674 8.04672
            CHANNELS 3 Zrotation Xrotation Yrotation
            End Site
            {
              OFFSET 1 0 0
            }
          }
        }
      }
      JOINT rCollar
      {
        OFFSET -2.68224 19.2634 -4.8768
        CHANNELS 3 Zrotation Xrotation Yrotation
        JOINT rShldr
        {
          OFFSET -8.77824 -1.95073 1.46304
          CHANNELS 3 Zrotation Xrotation Yrotation
          JOINT rForeArm
          {
            OFFSET -28.1742 -1.7115 0.48768
            CHANNELS 3 Zrotation Xrotation Yrotation
            JOINT rHand
            {
              OFFSET -22.5879 0.773209 7.07136
              CHANNELS 3 Zrotation Xrotation Yrotation
              JOINT rThumb1
              {
                OFFSET -1.2192 -0.487915 3.41376
                CHANNELS 3 Zrotation Xrotation Yrotation
                JOINT rThumb2
                {
                  OFFSET -3.37035 -0.52449 3.41376
                  CHANNELS 3 Zrotation Xrotation Yrotation
                  End Site
                  {
                    OFFSET -1.78271 -1.18214 1.43049
                  }
                }
              }
              JOINT rIndex1
              {
                OFFSET -7.75947 0.938293 5.60832
                CHANNELS 3 Zrotation Xrotation Yrotation
                JOINT rIndex2
                {
                  OFFSET -2.54057 -0.884171 1.56538
                  CHANNELS 3 Zrotation Xrotation Yrotation
                  End Site
                  {
                    OFFSET -1.62519 -0.234802 1.16502
                  }
                }
              }
              JOINT rMid1
              {
                OFFSET -8.24714 1.18213 3.41376
                CHANNELS 3 Zrotation Xrotation Yrotation
                JOINT rMid2
                {
                  OFFSET -3.10165 -0.590103 1.0647
                  CHANNELS 3 Zrotation Xrotation Yrotation
                  End Site
                  {
                    OFFSET -2.48547 -0.328903 0.83742
                  }
                }
              }
              JOINT rRing1
              {
                OFFSET -8.82822 0.546677 1.51678
                CHANNELS 3 Zrotation Xrotation Yrotation
                JOINT rRing2
                {
                  OFFSET -2.60934 -0.819778 -0.0198488
                  CHANNELS 3 Zrotation Xrotation Yrotation
                  End Site
                  {
                    OFFSET -2.33842 -0.294052 0.168128
                  }
                }
              }
              JOINT rPinky1
              {
                OFFSET -8.27202 -0.0477905 -0.4584
                CHANNELS 3 Zrotation Xrotation Yrotation
                JOINT rPinky2
                {
                  OFFSET -1.82734 -0.647385 -0.700984
                  CHANNELS 3 Zrotation Xrotation Yrotation
                  End Site
                  {
                    OFFSET -1.69225 -0.51767 -0.607171
                  }
                }
              }
            }
          }
        }
      }
      JOINT lCollar
      {
        OFFSET 2.68224 19.2634 -4.8768
        CHANNELS 3 Zrotation Xrotation Yrotation
        JOINT lShldr
        {
          OFFSET 8.77824 -1.95073 1.46304
          CHANNELS 3 Zrotation Xrotation Yrotation
          JOINT lForeArm
          {
            OFFSET 28.1742 -1.7115 0.48768
            CHANNELS 3 Zrotation Xrotation Yrotation
            JOINT lHand
            {
              OFFSET 22.5879 0.773209 7.07136
              CHANNELS 3 Zrotation Xrotation Yrotation
              JOINT lThumb1
              {
                OFFSET 1.2192 -0.487915 3.41376
                CHANNELS 3 Zrotation Xrotation Yrotation
                JOINT lThumb2
                {
                  OFFSET 3.37035 -0.52449 3.41376
                  CHANNELS 3 Zrotation Xrotation Yrotation
                  End Site
                  {
                    OFFSET 1.78271 -1.18214 1.43049
                  }
                }
              }
              JOINT lIndex1
              {
                OFFSET 7.75947 0.938293 5.60832
                CHANNELS 3 Zrotation Xrotation Yrotation
                JOINT lIndex2
                {
                  OFFSET 2.54057 -0.884171 1.56538
                  CHANNELS 3 Zrotation Xrotation Yrotation
                  End Site
                  {
                    OFFSET 1.62519 -0.234802 1.16502
                  }
                }
              }
              JOINT lMid1
              {
                OFFSET 8.24714 1.18213 3.41376
                CHANNELS 3 Zrotation Xrotation Yrotation
                JOINT lMid2
                {
                  OFFSET 3.10165 -0.590103 1.0647
                  CHANNELS 3 Zrotation Xrotation Yrotation
                  End Site
                  {
                    OFFSET 2.48547 -0.328903 0.83742
                  }
                }
              }
              JOINT lRing1
              {
                OFFSET 8.82822 0.546677 1.51678
                CHANNELS 3 Zrotation Xrotation Yrotation
                JOINT lRing2
                {
                  OFFSET 2.60934 -0.819778 -0.0198488
                  CHANNELS 3 Zrotation Xrotation Yrotation
                  End Site
                  {
                    OFFSET 2.33842 -0.294052 0.168128
                  }
                }
              }
              JOINT lPinky1
              {
                OFFSET 8.27202 -0.0477905 -0.4584
                CHANNELS 3 Zrotation Xrotation Yrotation
                JOINT lPinky2
                {
                  OFFSET 1.82734 -0.647385 -0.700984
                  CHANNELS 3 Zrotation Xrotation Yrotation
                  End Site
                  {
                    OFFSET 1.69225 -0.51767 -0.607171
                  }
                }
              }
            }
          }
        }
      }
    }
  }
  JOINT rButtock
  {
    OFFSET -8.77824 4.35084 1.2192
    CHANNELS 3 Zrotation Xrotation Yrotation
    JOINT rThigh
    {
      OFFSET 0 -1.70687 -2.19456
      CHANNELS 3 Zrotation Xrotation Yrotation
      JOINT rShin
      {
        OFFSET 0 -36.8199 0.73152
        CHANNELS 3 Zrotation Xrotation Yrotation
        JOINT rFoot
        {
          OFFSET 0.73152 -45.1104 -5.12064
          CHANNELS 3 Zrotation Xrotation Yrotation
          End Site
          {
            OFFSET -1.1221 -3.69964 12.103
          }
        }
      }
    }
  }
  JOINT lButtock
  {
    OFFSET 8.77824 4.35084 1.2192
    CHANNELS 3 Zrotation Xrotation Yrotation
    JOINT lThigh
    {
      OFFSET 0 -1.70687 -2.19456
      CHANNELS 3 Zrotation Xrotation Yrotation
      JOINT lShin
      {
        OFFSET 0 -36.8199 0.73152
        CHANNELS 3 Zrotation Xrotation Yrotation
        JOINT lFoot
        {
          OFFSET -0.73152 -45.1104 -5.12064
          CHANNELS 3 Zrotation Xrotation Yrotation
          End Site
          {
            OFFSET 1.1221 -3.69964 12.103
          }
        }
      }
    }
  }
}
MOTION
Frames:	5
Frame Time:	0.00833333
32.6669 84.1089 -11.353 0.0 0.0 0.0 -1.50365 -0.00293078 -0.0409966 -0.414503 0.000754939 -0.0717857 1.19557e-15 -7.95139e-16 -4.96962e-17 3.9788e-15 3.18055e-15 -2.25186e-16 -0.0 0.0 0.0 -0.0 0.0 0.0 8.43458e-16 -1.3977e-17 1.49089e-16 1.58771e-14 9.93923e-17 1.98785e-16 2.32131e-13 -7.83212e-14 -3.49861e-14 2.66909e-12 2.11209e-14 -1.24042e-13 6.28593e-12 -1.34859e-13 -3.33958e-13 1.08568e-11 -2.35361e-13 -5.89993e-13 6.29392e-12 -1.32788e-13 -3.4668e-13 7.73091 5.47488 0.417314 6.28622e-12 -1.34677e-13 -3.33958e-13 2.90554 0.965183 0.102902 6.29592e-12 -1.3418e-13 -3.40319e-13 10.2786 0.731801 0.0259123 6.28696e-12 -1.34776e-13 -3.37139e-13 2.22167 -0.733487 -0.20892 7.4686e-16 -1.16475e-17 -9.93923e-17 1.19607e-14 6.83322e-17 -1.19271e-15 2.37597e-13 5.78463e-14 3.18055e-15 2.67131e-12 -1.26328e-13 -1.49486e-13 6.30807e-12 -1.5571e-13 -3.33958e-13 1.09002e-11 -2.70347e-13 -5.58982e-13 6.30306e-12 -1.54257e-13 -3.21236e-13 -7.73091 5.47488 -0.417314 6.30744e-12 -1.5545e-13 -3.30778e-13 -2.90554 0.965183 -0.102902 6.29642e-12 -1.5545e-13 -3.27597e-13 -10.2786 0.731801 -0.0259123 6.30465e-12 -1.56642e-13 -3.33958e-13 -2.22167 -0.733487 0.20892 -2.03217e-16 0.0 -3.88251e-19 -0.636738 -1.92306 -0.00649737 -0.00920222 -2.07856 -0.0759643 -0.503989 3.99732 0.139105 2.03217e-16 0.0 3.88251e-19 -1.65078 -6.46943 0.152921 -0.00228858 6.15679 -0.067009 0.526739 0.308447 -0.0661968
31.3753 82.6165 -14.0333 -1.0886 -12.442 8.7949 -2.40372 -0.243548 0.750123 0.422086 -0.833383 0.172657 -5.7814 5.3177 -5.08711 9.76076 -4.8093 -9.33347 -0.0 0.0 0.0 -0.0 0.0 0.0 2.7688e-15 -6.91442e-14 -5.23277e-14 20.6034 18.0803 9.45632 -13.5755 -10.6526 14.0913 0.386295 -13.8655 -1.74898 -1.48914e-10 1.21113e-09 -1.85535e-10 -2.4808e-10 2.10586e-09 -3.24327e-10 -1.48911e-10 1.21114e-09 -1.85548e-10 7.73091 5.47488 0.417314 -1.48915e-10 1.21113e-09 -1.85535e-10 2.90554 0.965183 0.102902 -1.48904e-10 1.21113e-09 -1.85537e-10 10.2786 0.731801 0.0259123 -1.48913e-10 1.21113e-09 -1.85532e-10 2.22167 -0.733487 -0.20892 2.64903e-15 -6.91418e-14 -5.25785e-14 -21.7076 12.5593 -0.364894 21.5743 -19.4156 -15.078 -0.542868 -16.4746 1.98436 7.54003e-10 3.80757e-09 9.86879e-11 1.29128e-09 6.63966e-09 2.03841e-10 7.53999e-10 3.80758e-09 9.86979e-11 -7.73091 5.47488 -0.417314 7.54004e-10 3.80758e-09 9.86912e-11 -2.90554 0.965183 -0.102902 7.53991e-10 3.80758e-09 9.8692e-11 -10.2786 0.731801 -0.0259123 7.53999e-10 3.80758e-09 9.86856e-11 -2.22167 -0.733487 0.20892 -2.03217e-16 0.0 -3.88251e-19 -2.6015 -3.62407 -3.14704 0.00164336 3.12706 0.0558989 -1.28566 -0.506626 -8.26059 2.03217e-16 0.0 3.88251e-19 -1.23895 -10.9526 -0.212655 -0.00159493 10.6007 -0.0948267 0.401107 -1.18111 -1.00575
31.3893 82.6145 -14.0366 -1.052 -12.3734 8.8072 -3.34625 -0.496373 1.58514 1.3141 -1.71699 0.430855 -10.8561 10.799 -10.6088 18.3865 -9.46333 -19.4058 -0.0 0.0 0.0 -0.0 0.0 0.0 5.41298e-15 -1.41293e-13 -1.12754e-13 34.7219 35.4139 22.8905 -22.1734 -19.7165 30.4301 -0.240052 -28.4556 -3.97151 -3.16382e-10 2.47904e-09 -3.76281e-10 -5.2787e-10 4.31236e-09 -6.57927e-10 -3.16383e-10 2.47907e-09 -3.76293e-10 7.73091 5.47488 0.417314 -3.16383e-10 2.47905e-09 -3.76279e-10 2.90554 0.965183 0.102902 -3.1637e-10 2.47904e-09 -3.76276e-10 10.2786 0.731801 0.0259123 -3.16381e-10 2.47904e-09 -3.7627e-10 2.22167 -0.733487 -0.20892 5.26583e-15 -1.41291e-13 -1.13009e-13 -44.4658 25.8393 -0.811926 31.7322 -35.1329 -36.6434 0.35277 -33.8241 4.71396 1.55085e-09 7.81762e-09 1.92455e-10 2.65646e-09 1.36364e-08 4.01465e-10 1.55085e-09 7.81762e-09 1.92462e-10 -7.73091 5.47488 -0.417314 1.55085e-09 7.81762e-09 1.92458e-10 -2.90554 0.965183 -0.102902 1.55084e-09 7.81762e-09 1.92456e-10 -10.2786 0.731801 -0.0259123 1.55085e-09 7.81762e-09 1.9245e-10 -2.22167 -0.733487 0.20892 -2.03217e-16 0.0 -3.88251e-19 -4.88142 -5.39736 -6.48007 -0.0131317 8.6277 0.197264 -3.53044 -5.04305 -17.2084 2.03217e-16 0.0 3.88251e-19 -0.868022 -15.6901 -0.613485 0.00403329 15.2986 -0.12579 0.215432 -2.75365 -1.99777
31.3914 82.6124 -14.0422 -1.0507 -12.3641 8.8268 -4.18392 -0.724246 2.33253 2.11663 -2.5015 0.662118 -14.4596 15.4416 -15.7791 24.691 -12.8897 -28.6881 -0.0 0.0 0.0 -0.0 0.0 0.0 6.61948e-15 -2.07405e-13 -1.57281e-13 37.8284 46.8532 41.5184 -25.4606 -24.0102 46.5377 -2.09315 -41.4146 -6.79952 -4.59314e-10 3.63365e-09 -5.55938e-10 -7.65954e-10 6.31804e-09 -9.71801e-10 -4.5932e-10 3.63369e-09 -5.55951e-10 7.73091 5.47488 0.417314 -4.59317e-10 3.63367e-09 -5.55936e-10 2.90554 0.965183 0.102902 -4.59303e-10 3.63365e-09 -5.55929e-10 10.2786 0.731801 0.0259123 -4.59314e-10 3.63365e-09 -5.55922e-10 2.22167 -0.733487 -0.20892 6.45336e-15 -2.07402e-13 -1.57537e-13 -64.5357 37.671 -1.34994 30.352 -39.6761 -61.5869 3.3143 -49.1209 8.74201 2.24939e-09 1.1423e-08 2.96732e-10 3.85205e-09 1.99195e-08 6.12641e-10 2.24939e-09 1.1423e-08 2.96736e-10 -7.73091 5.47488 -0.417314 2.2494e-09 1.1423e-08 2.96735e-10 -2.90554 0.965183 -0.102902 2.24938e-09 1.1423e-08 2.96731e-10 -10.2786 0.731801 -0.0259123 2.24939e-09 1.1423e-08 2.96725e-10 -2.22167 -0.733487 0.20892 -2.03217e-16 0.0 -3.88251e-19 -7.09111 -6.94724 -9.47947 -0.0499047 13.5381 0.328401 -6.71507 -8.62624 -25.3652 2.03217e-16 0.0 3.88251e-19 -0.596691 -19.9165 -0.989423 0.0136345 19.4883 -0.155276 0.00302779 -4.1555 -2.89181
31.3965 82.6101 -14.0347 -1.0504 -12.3126 8.8462 -4.77326 -0.890244 2.86068 2.68034 -3.03846 0.825476 -16.4401 18.4741 -19.5761 28.387 -14.7133 -35.3383 -0.0 0.0 0.0 -0.0 0.0 0.0 4.23182e-15 -2.58422e-13 -1.62059e-13 34.1536 50.6519 58.8835 -26.273 -24.1563 57.9289 -4.62627 -50.455 -9.80045 -5.4091e-10 4.50501e-09 -7.07877e-10 -8.99774e-10 7.8217e-09 -1.23636e-09 -5.40918e-10 4.50505e-09 -7.0789e-10 7.73091 5.47488 0.417314 -5.40913e-10 4.50503e-09 -7.07874e-10 2.90554 0.965183 0.102902 -5.40899e-10 4.50501e-09 -7.07866e-10 10.2786 0.731801 0.0259123 -5.40911e-10 4.50501e-09 -7.07858e-10 2.22167 -0.733487 -0.20892 4.06771e-15 -2.58419e-13 -1.62308e-13 -78.3163 45.8882 -1.88813 28.428 -36.2066 -77.3559 7.92941 -59.5296 13.8201 2.70217e-09 1.40169e-08 4.27285e-10 4.62369e-09 2.44189e-08 8.57698e-10 2.70216e-09 1.40169e-08 4.27288e-10 -7.73091 5.47488 -0.417314 2.70217e-09 1.40169e-08 4.27288e-10 -2.90554 0.965183 -0.102902 2.70215e-09 1.40169e-08 4.27283e-10 -10.2786 0.731801 -0.0259123 2.70216e-09 1.40169e-08 4.27276e-10 -2.22167 -0.733487 0.20892 -2.03217e-16 0.0 -3.88251e-19 -8.73188 -8.00895 -11.6008 -0.0896063 16.9732 0.424586 -9.55251 -10.7384 -31.18 2.03217e-16 0.0 3.88251e-19 -0.443088 -22.8673 -1.26361 0.0230967 22.4078 -0.17711 -0.173401 -5.13508 -3.53415
